<svg width="24" height="24" viewBox="0 0 24 24" fill="none" xmlns="http://www.w3.org/2000/svg">
  <path d="M12 15.5C13.933 15.5 15.5 13.933 15.5 12C15.5 10.067 13.933 8.5 12 8.5C10.067 8.5 8.5 10.067 8.5 12C8.5 13.933 10.067 15.5 12 15.5Z" stroke="#2E5B40" stroke-width="1.8"/>
  <path d="M19 12C19 11.5 18.96 11.02 18.88 10.56L21 9L19 5.5L16.7 6.4C15.98 5.8 15.13 5.34 14.2 5.08L13.9 2.6H10.1L9.8 5.08C8.87 5.34 8.02 5.8 7.3 6.4L5 5.5L3 9L5.12 10.56C5.04 11.02 5 11.5 5 12C5 12.5 5.04 12.98 5.12 13.44L3 15L5 18.5L7.3 17.6C8.02 18.2 8.87 18.66 9.8 18.92L10.1 21.4H13.9L14.2 18.92C15.13 18.66 15.98 18.2 16.7 17.6L19 18.5L21 15L18.88 13.44C18.96 12.98 19 12.5 19 12Z" stroke="#2E5B40" stroke-width="1.5" stroke-linejoin="round"/>
</svg>
